<svg id="svg" xmlns="http://www.w3.org/2000/svg" xmlns:xlink="http://www.w3.org/1999/xlink" width="400" height="65.88235294117648" viewBox="0, 0, 400,65.88235294117648"><g id="svgg"><path id="path0" d="M47.059 25.882 L 47.059 50.588 50.588 50.588 L 54.118 50.588 54.118 35.294 L 54.118 20.000 67.059 20.000 L 80.000 20.000 80.000 35.294 L 80.000 50.588 82.941 50.588 L 85.882 50.588 85.882 34.203 C 85.882 13.009,85.822 12.941,66.900 12.941 L 54.118 12.941 54.118 7.059 C 54.118 1.307,54.039 1.176,50.588 1.176 L 47.059 1.176 47.059 25.882 M314.118 22.783 C 314.118 50.100,314.357 50.588,327.732 50.588 C 336.269 50.588,336.471 50.520,336.471 47.647 C 336.471 44.811,336.196 44.706,328.824 44.706 L 321.176 44.706 321.176 32.353 L 321.176 20.000 328.824 20.000 L 336.471 20.000 336.471 16.471 L 336.471 12.941 328.824 12.941 L 321.176 12.941 321.176 7.059 C 321.176 1.307,321.098 1.176,317.647 1.176 L 314.118 1.176 314.118 22.783 M340.000 4.118 C 340.000 6.601,340.549 7.059,343.529 7.059 C 346.510 7.059,347.059 6.601,347.059 4.118 C 347.059 1.634,346.510 1.176,343.529 1.176 C 340.549 1.176,340.000 1.634,340.000 4.118 M5.233 14.442 C 4.916 15.268,4.800 27.047,4.975 40.619 L 5.294 65.294 8.529 65.666 L 11.765 66.039 11.765 58.313 L 11.765 50.588 25.700 50.588 C 43.938 50.588,43.529 51.013,43.529 32.052 C 43.529 12.900,43.576 12.941,21.569 12.941 C 9.876 12.941,5.660 13.329,5.233 14.442 M92.777 15.188 C 88.161 18.924,87.905 44.208,92.439 48.741 C 95.736 52.038,124.004 51.399,126.404 47.974 C 129.944 42.919,128.990 18.412,125.135 15.380 C 120.669 11.866,97.056 11.727,92.777 15.188 M136.748 14.161 C 132.717 15.780,131.765 19.945,131.765 35.959 L 131.765 50.588 135.294 50.588 L 138.824 50.588 138.824 35.294 L 138.824 20.000 150.000 20.000 L 161.176 20.000 161.176 16.471 L 161.176 12.941 150.294 13.016 C 144.309 13.057,138.213 13.572,136.748 14.161 M168.072 15.188 C 163.455 18.924,163.199 44.208,167.733 48.741 C 171.030 52.038,199.298 51.399,201.698 47.974 C 205.238 42.919,204.285 18.412,200.430 15.380 C 195.963 11.866,172.350 11.727,168.072 15.188 M209.020 13.725 C 208.588 14.157,208.235 22.627,208.235 32.549 L 208.235 50.588 211.765 50.588 L 215.294 50.588 215.294 35.294 L 215.294 20.000 224.706 20.000 L 234.118 20.000 234.118 35.294 L 234.118 50.588 237.647 50.588 L 241.176 50.588 241.176 35.294 L 241.176 20.000 250.588 20.000 L 260.000 20.000 260.000 35.294 L 260.000 50.588 262.941 50.588 L 265.882 50.588 265.864 34.412 C 265.845 17.380,265.646 16.451,261.548 14.294 C 258.765 12.829,210.439 12.306,209.020 13.725 M270.804 16.176 L 271.176 19.412 287.353 19.739 L 303.529 20.066 303.529 24.739 L 303.529 29.412 287.059 29.412 L 270.588 29.412 270.588 36.548 C 270.588 49.944,271.537 50.548,292.647 50.570 L 309.412 50.588 309.412 34.203 C 309.412 12.485,309.897 12.941,286.822 12.941 L 270.432 12.941 270.804 16.176 M340.000 31.765 L 340.000 50.588 343.529 50.588 L 347.059 50.588 347.059 31.765 L 347.059 12.941 343.529 12.941 L 340.000 12.941 340.000 31.765 M355.130 15.188 C 352.601 17.235,352.317 18.500,351.947 29.367 C 351.224 50.590,351.222 50.588,373.613 50.588 L 390.588 50.588 390.588 47.647 L 390.588 44.706 374.706 44.706 L 358.824 44.706 358.824 32.353 L 358.824 20.000 374.706 20.000 L 390.588 20.000 390.588 16.471 L 390.588 12.941 374.248 12.941 C 359.918 12.941,357.566 13.218,355.130 15.188 M37.394 32.059 L 37.059 44.118 24.412 44.452 L 11.765 44.785 11.765 32.393 L 11.765 20.000 24.747 20.000 L 37.729 20.000 37.394 32.059 M121.765 32.353 L 121.765 44.118 109.118 44.452 L 96.471 44.785 96.471 32.353 L 96.471 19.920 109.118 20.254 L 121.765 20.588 121.765 32.353 M197.059 32.353 L 197.059 44.118 184.412 44.452 L 171.765 44.785 171.765 32.353 L 171.765 19.920 184.412 20.254 L 197.059 20.588 197.059 32.353 M303.529 40.000 L 303.529 44.706 290.588 44.706 L 277.647 44.706 277.647 40.000 L 277.647 35.294 290.588 35.294 L 303.529 35.294 303.529 40.000 " stroke="none" fill="#000000" fill-rule="evenodd"></path></g></svg>
